<?xml version="1.0" encoding="UTF-8" standalone="no"?>
<!-- Created with Inkscape (http://www.inkscape.org/) -->

<svg
   xmlns:dc="http://purl.org/dc/elements/1.1/"
   xmlns:cc="http://creativecommons.org/ns#"
   xmlns:rdf="http://www.w3.org/1999/02/22-rdf-syntax-ns#"
   xmlns:svg="http://www.w3.org/2000/svg"
   xmlns="http://www.w3.org/2000/svg"
   xmlns:sodipodi="http://sodipodi.sourceforge.net/DTD/sodipodi-0.dtd"
   xmlns:inkscape="http://www.inkscape.org/namespaces/inkscape"
   width="23.283333mm"
   height="63.852779mm"
   viewBox="0 0 82.499998 226.25"
   id="svg2"
   version="1.1"
   inkscape:version="0.91 r13725"
   sodipodi:docname="ccsh.svg">
  <defs
     id="defs4" />
  <sodipodi:namedview
     id="base"
     pagecolor="#ffffff"
     bordercolor="#666666"
     borderopacity="1.0"
     inkscape:pageopacity="0.0"
     inkscape:pageshadow="2"
     inkscape:zoom="1.979899"
     inkscape:cx="158.15281"
     inkscape:cy="109.72757"
     inkscape:document-units="px"
     inkscape:current-layer="layer1"
     showgrid="false"
     fit-margin-top="0"
     fit-margin-left="0"
     fit-margin-right="0"
     fit-margin-bottom="0"
     inkscape:window-width="1366"
     inkscape:window-height="705"
     inkscape:window-x="-8"
     inkscape:window-y="-8"
     inkscape:window-maximized="1" />
  <metadata
     id="metadata7">
    <rdf:RDF>
      <cc:Work
         rdf:about="">
        <dc:format>image/svg+xml</dc:format>
        <dc:type
           rdf:resource="http://purl.org/dc/dcmitype/StillImage" />
        <dc:title></dc:title>
      </cc:Work>
    </rdf:RDF>
  </metadata>
  <g
     inkscape:label="Vrstva 1"
     inkscape:groupmode="layer"
     id="layer1"
     transform="translate(-193.03571,-213.52292)">
    <g
       id="g3348"
       transform="matrix(1.25,0,0,1.25,193.03571,213.52292)"
       style="fill:#1a1a1a;fill-opacity:1">
      <g
         id="#ffffffff"
         style="fill:#1a1a1a;fill-opacity:1" />
      <g
         id="#ef2020ff"
         style="fill:#1a1a1a;fill-opacity:1">
        <path
           id="path3340"
           d="m 24,0 18,0 0,25 24,0 0,18 -24,0 0,17.99 c 6.34,0.05 12.68,-0.09 19.02,0.11 -0.06,1.57 -0.1,3.14 -0.31,4.69 -2.16,14.25 -4.11,28.56 -7.23,42.64 -2.541155,7.94968 -5.221157,9.61908 -9.44,17.21 0.29,11.03 2.3,21.97 4.41,32.79 1.46,4.01 2.75,8.31 5.78,11.46 2.22,2.39 4.49,4.72 6.72,7.1 0.02,1.34 0.05,2.67 0.07,4.01 l -56.07,0 c 0.04,-1.34 0.07,-2.68 0.11,-4.01 3.7,-4.31 8.65,-7.85 10.56,-13.42 2.55,-5.2 2.87,-11.06 4.14,-16.64 0.68,-7.1 2.34,-14.13 2.2,-21.29 C 13.605962,115.18097 12.064082,105.87178 9.63,93.82 8.05,82.92 5.76,72.08 4.98,61.09 11.33,60.91 17.68,61.04 24.04,61 24.02,55 23.98,49 24,43 L 0,43 0,25 24,25 C 23.97,16.67 24.01,8.33 24,0 m 5,7 c -0.01,8 0.01,16 0,24 L 5,31 c 0,2.34 0.01,4.68 0,7.02 8,0.05 15.99,-0.14 23.99,0.12 0.03,22.29 0,44.57 0.01,66.86 l 8,0 C 37.02,82.7 36.97,60.4 37.02,38.1 44.68,37.99 52.34,38 60,38.03 L 60,31 C 52.33,30.99 44.66,31.01 37,31 36.99,23 37.01,15 37,7 L 29,7 M 10.9,67 c 1.24,11.62 3.72,23.09 5.64,34.61 3.224275,8.9982 3.171015,17.1339 15.773858,18.41152 7.910147,-0.0315 12.246637,-3.01009 14.716142,-9.89152 1.26,-4.38 2.72,-8.71 3.3,-13.25 1.54,-9.96 3.81,-19.84 4.77,-29.88 -4.38,-0.12 -8.75,0.05 -13.12,-0.04 -0.04,13.99 0.1,27.99 -0.04,41.99 -5.96,0.09 -11.92,0.08 -17.88,0 -0.14,-14 0.01,-27.99 -0.03,-41.99 C 19.65,67.04 15.28,66.88 10.9,67 m 16.23,57.93 c -1.65,13.28 -2.97,26.65 -6.29,39.65 -2.17,4.23 -4.97,8.05 -8.17,11.57 l 40.67,0 c -3.22,-3.51 -6.01,-7.34 -8.18,-11.58 -3.33,-13 -4.64,-26.36 -6.29,-39.64 -3.91,-0.14 -7.83,-0.14 -11.74,0 z"
           inkscape:connector-curvature="0"
           style="opacity:1;fill:#1a1a1a;fill-opacity:1"
           sodipodi:nodetypes="ccccccccccccccccccccccccccccccccccccccccccccccccccccccccccc" />
      </g>
    </g>
  </g>
</svg>
